<mxfile host="app.diagrams.net" modified="2023-10-28T19:04:30.319Z" agent="Mozilla/5.0 (Macintosh; Intel Mac OS X 10_15_7) AppleWebKit/537.36 (KHTML, like Gecko) Chrome/118.0.0.0 Safari/537.36" etag="IZCj1PqyztupYugK_YgX" version="21.6.8" type="device">
  <diagram name="Page-1" id="RV3nle_PSOwofGm3N4Fc">
    <mxGraphModel dx="1790" dy="1052" grid="1" gridSize="10" guides="1" tooltips="1" connect="1" arrows="1" fold="1" page="1" pageScale="1" pageWidth="827" pageHeight="1169" math="0" shadow="0">
      <root>
        <mxCell id="0" />
        <mxCell id="1" parent="0" />
        <mxCell id="k41R3ElehZ7amtXxi9mN-13" value="" style="rounded=0;whiteSpace=wrap;html=1;" vertex="1" parent="1">
          <mxGeometry x="290" y="460" width="410" height="280" as="geometry" />
        </mxCell>
        <mxCell id="k41R3ElehZ7amtXxi9mN-1" value="Account:&lt;br&gt;&lt;br&gt;&lt;ul&gt;&lt;li&gt;ID&lt;/li&gt;&lt;ul&gt;&lt;li&gt;string/number&lt;/li&gt;&lt;/ul&gt;&lt;li&gt;Email&lt;/li&gt;&lt;ul&gt;&lt;li&gt;string&lt;/li&gt;&lt;/ul&gt;&lt;li&gt;Passwort&lt;/li&gt;&lt;ul&gt;&lt;li&gt;string&lt;/li&gt;&lt;/ul&gt;&lt;li&gt;GroupIds&lt;/li&gt;&lt;ul&gt;&lt;li&gt;Array&amp;lt;string/number&amp;gt;&lt;/li&gt;&lt;/ul&gt;&lt;li&gt;Role&lt;/li&gt;&lt;ul&gt;&lt;li&gt;string&lt;/li&gt;&lt;/ul&gt;&lt;/ul&gt;" style="rounded=0;whiteSpace=wrap;html=1;align=left;" vertex="1" parent="1">
          <mxGeometry x="40" y="80" width="230" height="210" as="geometry" />
        </mxCell>
        <mxCell id="k41R3ElehZ7amtXxi9mN-2" value="&lt;font style=&quot;font-size: 24px;&quot;&gt;Datenstruktur&lt;/font&gt;" style="text;html=1;strokeColor=none;fillColor=none;align=center;verticalAlign=middle;whiteSpace=wrap;rounded=0;" vertex="1" parent="1">
          <mxGeometry x="70" y="20" width="60" height="30" as="geometry" />
        </mxCell>
        <mxCell id="k41R3ElehZ7amtXxi9mN-3" value="Player:&lt;br&gt;&lt;br&gt;&lt;ul&gt;&lt;li&gt;&lt;span style=&quot;background-color: initial;&quot;&gt;PlayerId&lt;/span&gt;&lt;br&gt;&lt;/li&gt;&lt;ul&gt;&lt;li style=&quot;border-color: var(--border-color);&quot;&gt;string/number&lt;/li&gt;&lt;/ul&gt;&lt;li&gt;Name&lt;/li&gt;&lt;ul&gt;&lt;li&gt;string&lt;/li&gt;&lt;/ul&gt;&lt;li&gt;Image&lt;/li&gt;&lt;ul&gt;&lt;li&gt;string&lt;/li&gt;&lt;/ul&gt;&lt;li&gt;Balance&lt;/li&gt;&lt;ul&gt;&lt;li&gt;number&lt;/li&gt;&lt;/ul&gt;&lt;li&gt;Score&lt;/li&gt;&lt;ul&gt;&lt;li&gt;number&lt;/li&gt;&lt;/ul&gt;&lt;li&gt;FighterIds&lt;/li&gt;&lt;ul&gt;&lt;li&gt;Array&amp;lt;string/number&amp;gt;&lt;/li&gt;&lt;/ul&gt;&lt;li&gt;Wins ...&lt;/li&gt;&lt;li&gt;Losses ...&lt;/li&gt;&lt;/ul&gt;" style="rounded=0;whiteSpace=wrap;html=1;align=left;" vertex="1" parent="1">
          <mxGeometry x="620" y="80" width="230" height="280" as="geometry" />
        </mxCell>
        <mxCell id="k41R3ElehZ7amtXxi9mN-4" value="Group:&lt;br&gt;&lt;br&gt;&lt;ul&gt;&lt;li&gt;ID&lt;/li&gt;&lt;ul&gt;&lt;li&gt;string/number&lt;/li&gt;&lt;/ul&gt;&lt;li&gt;Name&lt;/li&gt;&lt;ul&gt;&lt;li&gt;string&lt;/li&gt;&lt;/ul&gt;&lt;li&gt;Logo (URL)&lt;/li&gt;&lt;ul&gt;&lt;li&gt;string&lt;/li&gt;&lt;/ul&gt;&lt;li&gt;Players&lt;/li&gt;&lt;ul&gt;&lt;li&gt;Array&amp;lt;Player&amp;gt;&lt;/li&gt;&lt;/ul&gt;&lt;li&gt;SeasonStart&lt;/li&gt;&lt;ul&gt;&lt;li&gt;number&lt;/li&gt;&lt;/ul&gt;&lt;li&gt;Duration&lt;/li&gt;&lt;ul&gt;&lt;li&gt;number&lt;/li&gt;&lt;/ul&gt;&lt;li&gt;FightNights&lt;/li&gt;&lt;ul&gt;&lt;li&gt;Array&amp;lt;FightNight&amp;gt;&lt;/li&gt;&lt;/ul&gt;&lt;/ul&gt;" style="rounded=0;whiteSpace=wrap;html=1;align=left;" vertex="1" parent="1">
          <mxGeometry x="330" y="80" width="230" height="270" as="geometry" />
        </mxCell>
        <mxCell id="k41R3ElehZ7amtXxi9mN-5" value="FightNight:&lt;br&gt;&lt;br&gt;&lt;ul&gt;&lt;li&gt;&lt;span style=&quot;background-color: initial;&quot;&gt;Date&lt;/span&gt;&lt;br&gt;&lt;/li&gt;&lt;ul&gt;&lt;li&gt;number&lt;/li&gt;&lt;/ul&gt;&lt;li&gt;&lt;span style=&quot;background-color: initial;&quot;&gt;Fights&lt;/span&gt;&lt;br&gt;&lt;/li&gt;&lt;ul&gt;&lt;li&gt;Array&amp;lt;Fight&amp;gt;&lt;/li&gt;&lt;/ul&gt;&lt;/ul&gt;" style="rounded=0;whiteSpace=wrap;html=1;align=left;" vertex="1" parent="1">
          <mxGeometry x="910" y="80" width="230" height="130" as="geometry" />
        </mxCell>
        <mxCell id="k41R3ElehZ7amtXxi9mN-6" value="Fight:&lt;br&gt;&lt;br&gt;&lt;ul&gt;&lt;li&gt;&lt;span style=&quot;background-color: initial;&quot;&gt;WeightClass&lt;/span&gt;&lt;br&gt;&lt;/li&gt;&lt;ul&gt;&lt;li&gt;string&lt;/li&gt;&lt;/ul&gt;&lt;li&gt;Price&lt;/li&gt;&lt;ul&gt;&lt;li&gt;number&lt;/li&gt;&lt;/ul&gt;&lt;li&gt;Fighters&lt;/li&gt;&lt;ul&gt;&lt;li&gt;Array&amp;lt;Tuple&amp;lt;PlayerId, FighterId&amp;gt;&amp;gt;&lt;/li&gt;&lt;/ul&gt;&lt;li&gt;Results ...&lt;/li&gt;&lt;/ul&gt;" style="rounded=0;whiteSpace=wrap;html=1;align=left;" vertex="1" parent="1">
          <mxGeometry x="1200" y="80" width="290" height="170" as="geometry" />
        </mxCell>
        <mxCell id="k41R3ElehZ7amtXxi9mN-7" value="Fighter:&lt;br&gt;&lt;br&gt;&lt;ul&gt;&lt;li&gt;ID&lt;/li&gt;&lt;ul&gt;&lt;li&gt;string/number&lt;/li&gt;&lt;/ul&gt;&lt;li&gt;Name&lt;/li&gt;&lt;ul&gt;&lt;li&gt;string&lt;/li&gt;&lt;/ul&gt;&lt;li&gt;Weight&lt;/li&gt;&lt;ul&gt;&lt;li&gt;number&lt;/li&gt;&lt;/ul&gt;&lt;li&gt;...&lt;/li&gt;&lt;/ul&gt;" style="rounded=0;whiteSpace=wrap;html=1;align=left;" vertex="1" parent="1">
          <mxGeometry x="1550" y="80" width="190" height="170" as="geometry" />
        </mxCell>
        <mxCell id="k41R3ElehZ7amtXxi9mN-8" value="&lt;font style=&quot;font-size: 24px;&quot;&gt;Architecture&lt;br&gt;&lt;/font&gt;" style="text;html=1;strokeColor=none;fillColor=none;align=center;verticalAlign=middle;whiteSpace=wrap;rounded=0;" vertex="1" parent="1">
          <mxGeometry x="70" y="400" width="60" height="30" as="geometry" />
        </mxCell>
        <mxCell id="k41R3ElehZ7amtXxi9mN-22" style="edgeStyle=orthogonalEdgeStyle;rounded=0;orthogonalLoop=1;jettySize=auto;html=1;" edge="1" parent="1" source="k41R3ElehZ7amtXxi9mN-10" target="k41R3ElehZ7amtXxi9mN-11">
          <mxGeometry relative="1" as="geometry" />
        </mxCell>
        <mxCell id="k41R3ElehZ7amtXxi9mN-10" value="Frontend" style="rounded=0;whiteSpace=wrap;html=1;" vertex="1" parent="1">
          <mxGeometry x="830" y="570" width="120" height="60" as="geometry" />
        </mxCell>
        <mxCell id="k41R3ElehZ7amtXxi9mN-23" style="edgeStyle=orthogonalEdgeStyle;rounded=0;orthogonalLoop=1;jettySize=auto;html=1;exitX=0;exitY=0.5;exitDx=0;exitDy=0;entryX=1;entryY=0.5;entryDx=0;entryDy=0;" edge="1" parent="1" source="k41R3ElehZ7amtXxi9mN-11" target="k41R3ElehZ7amtXxi9mN-15">
          <mxGeometry relative="1" as="geometry" />
        </mxCell>
        <mxCell id="k41R3ElehZ7amtXxi9mN-11" value="Controller" style="rounded=0;whiteSpace=wrap;html=1;fillColor=#d5e8d4;strokeColor=#82b366;" vertex="1" parent="1">
          <mxGeometry x="610" y="480" width="120" height="240" as="geometry" />
        </mxCell>
        <mxCell id="k41R3ElehZ7amtXxi9mN-12" value="MongoDB" style="rounded=0;whiteSpace=wrap;html=1;" vertex="1" parent="1">
          <mxGeometry x="50" y="555" width="110" height="90" as="geometry" />
        </mxCell>
        <mxCell id="k41R3ElehZ7amtXxi9mN-25" style="edgeStyle=orthogonalEdgeStyle;rounded=0;orthogonalLoop=1;jettySize=auto;html=1;" edge="1" parent="1" source="k41R3ElehZ7amtXxi9mN-14" target="k41R3ElehZ7amtXxi9mN-12">
          <mxGeometry relative="1" as="geometry" />
        </mxCell>
        <mxCell id="k41R3ElehZ7amtXxi9mN-14" value="Repository" style="rounded=0;whiteSpace=wrap;html=1;fillColor=#e1d5e7;strokeColor=#9673a6;" vertex="1" parent="1">
          <mxGeometry x="260" y="480" width="120" height="240" as="geometry" />
        </mxCell>
        <mxCell id="k41R3ElehZ7amtXxi9mN-24" style="edgeStyle=orthogonalEdgeStyle;rounded=0;orthogonalLoop=1;jettySize=auto;html=1;exitX=0;exitY=0.5;exitDx=0;exitDy=0;entryX=1;entryY=0.5;entryDx=0;entryDy=0;" edge="1" parent="1" source="k41R3ElehZ7amtXxi9mN-15" target="k41R3ElehZ7amtXxi9mN-14">
          <mxGeometry relative="1" as="geometry" />
        </mxCell>
        <mxCell id="k41R3ElehZ7amtXxi9mN-15" value="Manager" style="rounded=0;whiteSpace=wrap;html=1;fillColor=#dae8fc;strokeColor=#6c8ebf;" vertex="1" parent="1">
          <mxGeometry x="414" y="480" width="166" height="240" as="geometry" />
        </mxCell>
        <mxCell id="k41R3ElehZ7amtXxi9mN-17" style="edgeStyle=orthogonalEdgeStyle;rounded=0;orthogonalLoop=1;jettySize=auto;html=1;entryX=1;entryY=0.5;entryDx=0;entryDy=0;" edge="1" parent="1" source="k41R3ElehZ7amtXxi9mN-16" target="k41R3ElehZ7amtXxi9mN-10">
          <mxGeometry relative="1" as="geometry" />
        </mxCell>
        <mxCell id="k41R3ElehZ7amtXxi9mN-16" value="Actor" style="shape=umlActor;verticalLabelPosition=bottom;verticalAlign=top;html=1;outlineConnect=0;" vertex="1" parent="1">
          <mxGeometry x="1020" y="570" width="30" height="60" as="geometry" />
        </mxCell>
        <mxCell id="k41R3ElehZ7amtXxi9mN-26" value="# Account&amp;nbsp;&amp;nbsp;&lt;br&gt;Repository.saveAccount &amp;lt;------&amp;nbsp; Manager.createAccount&amp;nbsp; &amp;lt;------ Controller.createAccount&lt;br&gt;Repository.&amp;nbsp;getAccount&amp;nbsp;&amp;lt;------&amp;nbsp; Manager.&amp;nbsp;getAccount&amp;nbsp; &amp;lt;------ Controller.getAccount&lt;br&gt;(... changePassword, ...)&lt;br&gt;# Group&lt;br&gt;Repository.saveGroup &amp;lt;------&amp;nbsp; Manager.joinGroup&amp;nbsp; &amp;lt;------ Controller.joinGroup&lt;br&gt;Repository.&amp;nbsp;getGroup&amp;nbsp;&amp;lt;------&amp;nbsp; Manager.&amp;nbsp;getGroup&amp;nbsp; &amp;lt;------ Controller.getGroup&lt;br&gt;(... changeLogo, ...)&lt;br&gt;# FightNight&lt;br&gt;Repository.updateFight &amp;lt;------&amp;nbsp; Manager.&amp;nbsp;addFighter(fighterId, account)&amp;nbsp;&amp;nbsp; &amp;lt;------ Controller.addFighter(fighterId)&lt;br&gt;# Fighter&lt;br&gt;Repository.getAllFighters&amp;nbsp;&amp;lt;------&amp;nbsp; Manager. getFighters&amp;nbsp;&amp;nbsp; &amp;lt;------ Controller.getFighters&lt;br style=&quot;border-color: var(--border-color);&quot;&gt;Repository.saveGroup &amp;lt;------&amp;nbsp; Manager. buyFighter(fighterId, account)&amp;nbsp;&amp;nbsp; &amp;lt;------ Controller.buyFighter(fighterId)&lt;br&gt;Repository.saveGroup &amp;lt;------&amp;nbsp; Manager. sellFighter(fighterId, account)&amp;nbsp;&amp;nbsp; &amp;lt;------ Controller.sellFighter(fighterId)" style="text;html=1;strokeColor=none;fillColor=none;align=center;verticalAlign=middle;whiteSpace=wrap;rounded=0;" vertex="1" parent="1">
          <mxGeometry x="1" y="760" width="980" height="220" as="geometry" />
        </mxCell>
        <mxCell id="k41R3ElehZ7amtXxi9mN-28" value="" style="rounded=0;whiteSpace=wrap;html=1;fillColor=#dae8fc;strokeColor=#6c8ebf;" vertex="1" parent="1">
          <mxGeometry x="265" y="1040" width="495" height="460" as="geometry" />
        </mxCell>
        <mxCell id="k41R3ElehZ7amtXxi9mN-31" style="edgeStyle=orthogonalEdgeStyle;rounded=0;orthogonalLoop=1;jettySize=auto;html=1;exitX=0.5;exitY=1;exitDx=0;exitDy=0;entryX=0.5;entryY=0;entryDx=0;entryDy=0;" edge="1" parent="1" source="k41R3ElehZ7amtXxi9mN-29" target="k41R3ElehZ7amtXxi9mN-30">
          <mxGeometry relative="1" as="geometry" />
        </mxCell>
        <mxCell id="k41R3ElehZ7amtXxi9mN-29" value="FightCronJob&lt;br&gt;every 1h or 10min or even more frequent" style="rounded=0;whiteSpace=wrap;html=1;fillColor=#fff2cc;strokeColor=#d6b656;" vertex="1" parent="1">
          <mxGeometry x="431" y="1060" width="120" height="80" as="geometry" />
        </mxCell>
        <mxCell id="k41R3ElehZ7amtXxi9mN-34" style="edgeStyle=orthogonalEdgeStyle;rounded=0;orthogonalLoop=1;jettySize=auto;html=1;exitX=0.5;exitY=1;exitDx=0;exitDy=0;" edge="1" parent="1" source="k41R3ElehZ7amtXxi9mN-30" target="k41R3ElehZ7amtXxi9mN-33">
          <mxGeometry relative="1" as="geometry" />
        </mxCell>
        <mxCell id="k41R3ElehZ7amtXxi9mN-30" value="Load FightNights with result == null &amp;amp;&amp;amp; date &amp;lt; now" style="rounded=0;whiteSpace=wrap;html=1;fillColor=#f8cecc;strokeColor=#b85450;" vertex="1" parent="1">
          <mxGeometry x="431" y="1180" width="120" height="60" as="geometry" />
        </mxCell>
        <mxCell id="k41R3ElehZ7amtXxi9mN-37" style="edgeStyle=orthogonalEdgeStyle;rounded=0;orthogonalLoop=1;jettySize=auto;html=1;" edge="1" parent="1" source="k41R3ElehZ7amtXxi9mN-33" target="k41R3ElehZ7amtXxi9mN-35">
          <mxGeometry relative="1" as="geometry" />
        </mxCell>
        <mxCell id="k41R3ElehZ7amtXxi9mN-33" value="for each FightNight" style="rounded=0;whiteSpace=wrap;html=1;fillColor=#f8cecc;strokeColor=#b85450;" vertex="1" parent="1">
          <mxGeometry x="431" y="1290" width="120" height="60" as="geometry" />
        </mxCell>
        <mxCell id="k41R3ElehZ7amtXxi9mN-38" style="edgeStyle=orthogonalEdgeStyle;rounded=0;orthogonalLoop=1;jettySize=auto;html=1;" edge="1" parent="1" source="k41R3ElehZ7amtXxi9mN-35" target="k41R3ElehZ7amtXxi9mN-36">
          <mxGeometry relative="1" as="geometry" />
        </mxCell>
        <mxCell id="k41R3ElehZ7amtXxi9mN-35" value="Load Fighters" style="rounded=0;whiteSpace=wrap;html=1;fillColor=#f8cecc;strokeColor=#b85450;" vertex="1" parent="1">
          <mxGeometry x="431" y="1410" width="120" height="60" as="geometry" />
        </mxCell>
        <mxCell id="k41R3ElehZ7amtXxi9mN-40" style="edgeStyle=orthogonalEdgeStyle;rounded=0;orthogonalLoop=1;jettySize=auto;html=1;exitX=0.5;exitY=0;exitDx=0;exitDy=0;" edge="1" parent="1" source="k41R3ElehZ7amtXxi9mN-36" target="k41R3ElehZ7amtXxi9mN-39">
          <mxGeometry relative="1" as="geometry" />
        </mxCell>
        <mxCell id="k41R3ElehZ7amtXxi9mN-36" value="Calculate Result" style="rounded=0;whiteSpace=wrap;html=1;fillColor=#f8cecc;strokeColor=#b85450;" vertex="1" parent="1">
          <mxGeometry x="610" y="1410" width="120" height="60" as="geometry" />
        </mxCell>
        <mxCell id="k41R3ElehZ7amtXxi9mN-41" style="edgeStyle=orthogonalEdgeStyle;rounded=0;orthogonalLoop=1;jettySize=auto;html=1;entryX=1;entryY=0.5;entryDx=0;entryDy=0;" edge="1" parent="1" source="k41R3ElehZ7amtXxi9mN-39" target="k41R3ElehZ7amtXxi9mN-33">
          <mxGeometry relative="1" as="geometry" />
        </mxCell>
        <mxCell id="k41R3ElehZ7amtXxi9mN-39" value="Save Group with updated scores, win/loss, balances, ..." style="rounded=0;whiteSpace=wrap;html=1;fillColor=#f8cecc;strokeColor=#b85450;" vertex="1" parent="1">
          <mxGeometry x="610" y="1290" width="120" height="60" as="geometry" />
        </mxCell>
      </root>
    </mxGraphModel>
  </diagram>
</mxfile>
